# xmcd
#
# Track frame offsets: 
#        150
#        20677
#        34345
#        53982
#        70410
#        99423
#        123818
#        146009
#        171042
#        187157
#        205500
#        232746
#        233121
#        233496
#        233871
#        234246
#        234620
#        234995
#
# Disc length: 3376 seconds
#
# Revision: 2
# Processed by: cddbd v1.5.2PL0 Copyright (c) Steve Scherf et al.
# Submitted via: ExactAudioCopy v0.99pb5
#
DISCID=e60d2e12
DTITLE=TRS-80 - The Manhattan Love Machine
DYEAR=2000
DGENRE=Electronic
TTITLE0=Tickle Fingers
TTITLE1=Rematrix
TTITLE2=Naturescent
TTITLE3=White on Green
TTITLE4=Pussy Wagon
TTITLE5=Night Soil
TTITLE6=MT830+
TTITLE7=The Drum Specialist
TTITLE8=The Biz (Filthy Rich)
TTITLE9=Formula '71
TTITLE10=The Modern Practical Method
TTITLE11=blank
TTITLE12=blank
TTITLE13=blank
TTITLE14=blank
TTITLE15=blank
TTITLE16=blank
TTITLE17=Bonus Track
EXTD=
EXTT0=
EXTT1=
EXTT2=
EXTT3=
EXTT4=
EXTT5=
EXTT6=
EXTT7=
EXTT8=
EXTT9=
EXTT10=
EXTT11=
EXTT12=
EXTT13=
EXTT14=
EXTT15=
EXTT16=
EXTT17=
PLAYORDER=
